<svg xmlns="http://www.w3.org/2000/svg" viewBox="0 0 64 72" width="384" height="432" shape-rendering="crispEdges" role="img" aria-label="Arcane Data logo: a blue morpho butterfly on the side of a skull atop a crooked stack of books">
  <rect x="28" y="10" width="8" height="1" fill="#161616"/>
  <rect x="45" y="10" width="3" height="1" fill="#161616"/>
  <rect x="25" y="11" width="3" height="1" fill="#161616"/>
  <rect x="28" y="11" width="8" height="1" fill="#f1efe8"/>
  <rect x="36" y="11" width="3" height="1" fill="#161616"/>
  <rect x="44" y="11" width="1" height="1" fill="#161616"/>
  <rect x="45" y="11" width="3" height="1" fill="#29a8ff"/>
  <rect x="48" y="11" width="1" height="1" fill="#161616"/>
  <rect x="23" y="12" width="2" height="1" fill="#161616"/>
  <rect x="25" y="12" width="14" height="1" fill="#f1efe8"/>
  <rect x="39" y="12" width="2" height="1" fill="#161616"/>
  <rect x="43" y="12" width="1" height="1" fill="#161616"/>
  <rect x="44" y="12" width="2" height="1" fill="#29a8ff"/>
  <rect x="46" y="12" width="1" height="1" fill="#1666c8"/>
  <rect x="47" y="12" width="1" height="1" fill="#eaf6ff"/>
  <rect x="48" y="12" width="1" height="1" fill="#29a8ff"/>
  <rect x="49" y="12" width="1" height="1" fill="#161616"/>
  <rect x="51" y="12" width="1" height="1" fill="#161616"/>
  <rect x="21" y="13" width="2" height="1" fill="#161616"/>
  <rect x="23" y="13" width="18" height="1" fill="#f1efe8"/>
  <rect x="41" y="13" width="3" height="1" fill="#161616"/>
  <rect x="44" y="13" width="1" height="1" fill="#29a8ff"/>
  <rect x="45" y="13" width="3" height="1" fill="#1666c8"/>
  <rect x="48" y="13" width="2" height="1" fill="#29a8ff"/>
  <rect x="50" y="13" width="1" height="1" fill="#161616"/>
  <rect x="20" y="14" width="1" height="1" fill="#161616"/>
  <rect x="21" y="14" width="21" height="1" fill="#f1efe8"/>
  <rect x="42" y="14" width="4" height="1" fill="#29a8ff"/>
  <rect x="46" y="14" width="1" height="1" fill="#1666c8"/>
  <rect x="47" y="14" width="2" height="1" fill="#29a8ff"/>
  <rect x="49" y="14" width="2" height="1" fill="#161616"/>
  <rect x="19" y="15" width="1" height="1" fill="#161616"/>
  <rect x="20" y="15" width="22" height="1" fill="#f1efe8"/>
  <rect x="42" y="15" width="1" height="1" fill="#29a8ff"/>
  <rect x="43" y="15" width="2" height="1" fill="#1666c8"/>
  <rect x="45" y="15" width="3" height="1" fill="#29a8ff"/>
  <rect x="48" y="15" width="4" height="1" fill="#161616"/>
  <rect x="53" y="15" width="1" height="1" fill="#161616"/>
  <rect x="18" y="16" width="1" height="1" fill="#161616"/>
  <rect x="19" y="16" width="23" height="1" fill="#f1efe8"/>
  <rect x="42" y="16" width="1" height="1" fill="#29a8ff"/>
  <rect x="43" y="16" width="2" height="1" fill="#1666c8"/>
  <rect x="45" y="16" width="1" height="1" fill="#29a8ff"/>
  <rect x="46" y="16" width="3" height="1" fill="#161616"/>
  <rect x="49" y="16" width="2" height="1" fill="#29a8ff"/>
  <rect x="51" y="16" width="2" height="1" fill="#161616"/>
  <rect x="17" y="17" width="1" height="1" fill="#161616"/>
  <rect x="18" y="17" width="25" height="1" fill="#f1efe8"/>
  <rect x="43" y="17" width="2" height="1" fill="#29a8ff"/>
  <rect x="45" y="17" width="2" height="1" fill="#161616"/>
  <rect x="47" y="17" width="6" height="1" fill="#29a8ff"/>
  <rect x="53" y="17" width="1" height="1" fill="#161616"/>
  <rect x="16" y="18" width="1" height="1" fill="#161616"/>
  <rect x="17" y="18" width="27" height="1" fill="#f1efe8"/>
  <rect x="44" y="18" width="2" height="1" fill="#161616"/>
  <rect x="46" y="18" width="3" height="1" fill="#29a8ff"/>
  <rect x="49" y="18" width="2" height="1" fill="#1666c8"/>
  <rect x="51" y="18" width="2" height="1" fill="#29a8ff"/>
  <rect x="53" y="18" width="1" height="1" fill="#161616"/>
  <rect x="16" y="19" width="1" height="1" fill="#161616"/>
  <rect x="17" y="19" width="28" height="1" fill="#f1efe8"/>
  <rect x="45" y="19" width="1" height="1" fill="#29a8ff"/>
  <rect x="46" y="19" width="2" height="1" fill="#1666c8"/>
  <rect x="48" y="19" width="1" height="1" fill="#29a8ff"/>
  <rect x="49" y="19" width="2" height="1" fill="#1666c8"/>
  <rect x="51" y="19" width="1" height="1" fill="#29a8ff"/>
  <rect x="52" y="19" width="1" height="1" fill="#eaf6ff"/>
  <rect x="53" y="19" width="1" height="1" fill="#161616"/>
  <rect x="15" y="20" width="1" height="1" fill="#161616"/>
  <rect x="16" y="20" width="29" height="1" fill="#f1efe8"/>
  <rect x="45" y="20" width="1" height="1" fill="#29a8ff"/>
  <rect x="46" y="20" width="2" height="1" fill="#1666c8"/>
  <rect x="48" y="20" width="4" height="1" fill="#29a8ff"/>
  <rect x="52" y="20" width="1" height="1" fill="#161616"/>
  <rect x="15" y="21" width="1" height="1" fill="#161616"/>
  <rect x="16" y="21" width="29" height="1" fill="#f1efe8"/>
  <rect x="45" y="21" width="4" height="1" fill="#29a8ff"/>
  <rect x="49" y="21" width="3" height="1" fill="#161616"/>
  <rect x="14" y="22" width="1" height="1" fill="#161616"/>
  <rect x="15" y="22" width="34" height="1" fill="#f1efe8"/>
  <rect x="49" y="22" width="1" height="1" fill="#161616"/>
  <rect x="14" y="23" width="1" height="1" fill="#161616"/>
  <rect x="15" y="23" width="6" height="1" fill="#f1efe8"/>
  <rect x="21" y="23" width="4" height="1" fill="#161616"/>
  <rect x="25" y="23" width="14" height="1" fill="#f1efe8"/>
  <rect x="39" y="23" width="4" height="1" fill="#161616"/>
  <rect x="43" y="23" width="6" height="1" fill="#f1efe8"/>
  <rect x="49" y="23" width="1" height="1" fill="#161616"/>
  <rect x="14" y="24" width="1" height="1" fill="#161616"/>
  <rect x="15" y="24" width="5" height="1" fill="#f1efe8"/>
  <rect x="20" y="24" width="6" height="1" fill="#161616"/>
  <rect x="26" y="24" width="12" height="1" fill="#f1efe8"/>
  <rect x="38" y="24" width="6" height="1" fill="#161616"/>
  <rect x="44" y="24" width="5" height="1" fill="#f1efe8"/>
  <rect x="49" y="24" width="1" height="1" fill="#161616"/>
  <rect x="14" y="25" width="1" height="1" fill="#161616"/>
  <rect x="15" y="25" width="4" height="1" fill="#f1efe8"/>
  <rect x="19" y="25" width="8" height="1" fill="#161616"/>
  <rect x="27" y="25" width="10" height="1" fill="#f1efe8"/>
  <rect x="37" y="25" width="8" height="1" fill="#161616"/>
  <rect x="45" y="25" width="4" height="1" fill="#f1efe8"/>
  <rect x="49" y="25" width="1" height="1" fill="#161616"/>
  <rect x="14" y="26" width="1" height="1" fill="#161616"/>
  <rect x="15" y="26" width="4" height="1" fill="#f1efe8"/>
  <rect x="19" y="26" width="8" height="1" fill="#161616"/>
  <rect x="27" y="26" width="10" height="1" fill="#f1efe8"/>
  <rect x="37" y="26" width="8" height="1" fill="#161616"/>
  <rect x="45" y="26" width="4" height="1" fill="#f1efe8"/>
  <rect x="49" y="26" width="1" height="1" fill="#161616"/>
  <rect x="14" y="27" width="1" height="1" fill="#161616"/>
  <rect x="15" y="27" width="4" height="1" fill="#f1efe8"/>
  <rect x="19" y="27" width="8" height="1" fill="#161616"/>
  <rect x="27" y="27" width="10" height="1" fill="#f1efe8"/>
  <rect x="37" y="27" width="8" height="1" fill="#161616"/>
  <rect x="45" y="27" width="4" height="1" fill="#f1efe8"/>
  <rect x="49" y="27" width="1" height="1" fill="#161616"/>
  <rect x="14" y="28" width="1" height="1" fill="#161616"/>
  <rect x="15" y="28" width="4" height="1" fill="#f1efe8"/>
  <rect x="19" y="28" width="8" height="1" fill="#161616"/>
  <rect x="27" y="28" width="10" height="1" fill="#f1efe8"/>
  <rect x="37" y="28" width="8" height="1" fill="#161616"/>
  <rect x="45" y="28" width="4" height="1" fill="#f1efe8"/>
  <rect x="49" y="28" width="1" height="1" fill="#161616"/>
  <rect x="14" y="29" width="1" height="1" fill="#161616"/>
  <rect x="15" y="29" width="4" height="1" fill="#f1efe8"/>
  <rect x="19" y="29" width="8" height="1" fill="#161616"/>
  <rect x="27" y="29" width="10" height="1" fill="#f1efe8"/>
  <rect x="37" y="29" width="8" height="1" fill="#161616"/>
  <rect x="45" y="29" width="4" height="1" fill="#f1efe8"/>
  <rect x="49" y="29" width="1" height="1" fill="#161616"/>
  <rect x="15" y="30" width="1" height="1" fill="#161616"/>
  <rect x="16" y="30" width="3" height="1" fill="#f1efe8"/>
  <rect x="19" y="30" width="8" height="1" fill="#161616"/>
  <rect x="27" y="30" width="10" height="1" fill="#f1efe8"/>
  <rect x="37" y="30" width="8" height="1" fill="#161616"/>
  <rect x="45" y="30" width="3" height="1" fill="#f1efe8"/>
  <rect x="48" y="30" width="1" height="1" fill="#161616"/>
  <rect x="15" y="31" width="1" height="1" fill="#161616"/>
  <rect x="16" y="31" width="4" height="1" fill="#f1efe8"/>
  <rect x="20" y="31" width="6" height="1" fill="#161616"/>
  <rect x="26" y="31" width="12" height="1" fill="#f1efe8"/>
  <rect x="38" y="31" width="6" height="1" fill="#161616"/>
  <rect x="44" y="31" width="4" height="1" fill="#f1efe8"/>
  <rect x="48" y="31" width="1" height="1" fill="#161616"/>
  <rect x="16" y="32" width="1" height="1" fill="#161616"/>
  <rect x="17" y="32" width="4" height="1" fill="#f1efe8"/>
  <rect x="21" y="32" width="4" height="1" fill="#161616"/>
  <rect x="25" y="32" width="6" height="1" fill="#f1efe8"/>
  <rect x="31" y="32" width="3" height="1" fill="#161616"/>
  <rect x="34" y="32" width="5" height="1" fill="#f1efe8"/>
  <rect x="39" y="32" width="4" height="1" fill="#161616"/>
  <rect x="43" y="32" width="4" height="1" fill="#f1efe8"/>
  <rect x="47" y="32" width="1" height="1" fill="#161616"/>
  <rect x="16" y="33" width="1" height="1" fill="#161616"/>
  <rect x="17" y="33" width="14" height="1" fill="#f1efe8"/>
  <rect x="31" y="33" width="3" height="1" fill="#161616"/>
  <rect x="34" y="33" width="13" height="1" fill="#f1efe8"/>
  <rect x="47" y="33" width="1" height="1" fill="#161616"/>
  <rect x="17" y="34" width="1" height="1" fill="#161616"/>
  <rect x="18" y="34" width="13" height="1" fill="#f1efe8"/>
  <rect x="31" y="34" width="3" height="1" fill="#161616"/>
  <rect x="34" y="34" width="12" height="1" fill="#f1efe8"/>
  <rect x="46" y="34" width="1" height="1" fill="#161616"/>
  <rect x="18" y="35" width="1" height="1" fill="#161616"/>
  <rect x="19" y="35" width="11" height="1" fill="#f1efe8"/>
  <rect x="30" y="35" width="5" height="1" fill="#161616"/>
  <rect x="35" y="35" width="10" height="1" fill="#f1efe8"/>
  <rect x="45" y="35" width="1" height="1" fill="#161616"/>
  <rect x="18" y="36" width="1" height="1" fill="#161616"/>
  <rect x="19" y="36" width="11" height="1" fill="#f1efe8"/>
  <rect x="30" y="36" width="5" height="1" fill="#161616"/>
  <rect x="35" y="36" width="10" height="1" fill="#f1efe8"/>
  <rect x="45" y="36" width="1" height="1" fill="#161616"/>
  <rect x="18" y="37" width="1" height="1" fill="#161616"/>
  <rect x="19" y="37" width="11" height="1" fill="#f1efe8"/>
  <rect x="30" y="37" width="5" height="1" fill="#161616"/>
  <rect x="35" y="37" width="10" height="1" fill="#f1efe8"/>
  <rect x="45" y="37" width="1" height="1" fill="#161616"/>
  <rect x="19" y="38" width="1" height="1" fill="#161616"/>
  <rect x="20" y="38" width="9" height="1" fill="#f1efe8"/>
  <rect x="29" y="38" width="7" height="1" fill="#161616"/>
  <rect x="36" y="38" width="8" height="1" fill="#f1efe8"/>
  <rect x="44" y="38" width="1" height="1" fill="#161616"/>
  <rect x="19" y="39" width="1" height="1" fill="#161616"/>
  <rect x="20" y="39" width="9" height="1" fill="#f1efe8"/>
  <rect x="29" y="39" width="7" height="1" fill="#161616"/>
  <rect x="36" y="39" width="8" height="1" fill="#f1efe8"/>
  <rect x="44" y="39" width="1" height="1" fill="#161616"/>
  <rect x="19" y="40" width="1" height="1" fill="#161616"/>
  <rect x="20" y="40" width="24" height="1" fill="#f1efe8"/>
  <rect x="44" y="40" width="1" height="1" fill="#161616"/>
  <rect x="20" y="41" width="1" height="1" fill="#161616"/>
  <rect x="21" y="41" width="22" height="1" fill="#f1efe8"/>
  <rect x="43" y="41" width="1" height="1" fill="#161616"/>
  <rect x="21" y="42" width="1" height="1" fill="#161616"/>
  <rect x="22" y="42" width="20" height="1" fill="#f1efe8"/>
  <rect x="42" y="42" width="1" height="1" fill="#161616"/>
  <rect x="22" y="43" width="1" height="1" fill="#161616"/>
  <rect x="23" y="43" width="18" height="1" fill="#f1efe8"/>
  <rect x="41" y="43" width="1" height="1" fill="#161616"/>
  <rect x="20" y="44" width="25" height="1" fill="#161616"/>
  <rect x="22" y="45" width="1" height="1" fill="#161616"/>
  <rect x="24" y="45" width="2" height="1" fill="#161616"/>
  <rect x="26" y="45" width="2" height="1" fill="#f1efe8"/>
  <rect x="28" y="45" width="1" height="1" fill="#161616"/>
  <rect x="29" y="45" width="2" height="1" fill="#f1efe8"/>
  <rect x="31" y="45" width="1" height="1" fill="#161616"/>
  <rect x="32" y="45" width="2" height="1" fill="#f1efe8"/>
  <rect x="34" y="45" width="1" height="1" fill="#161616"/>
  <rect x="35" y="45" width="2" height="1" fill="#f1efe8"/>
  <rect x="37" y="45" width="4" height="1" fill="#161616"/>
  <rect x="43" y="45" width="1" height="1" fill="#161616"/>
  <rect x="22" y="46" width="1" height="1" fill="#161616"/>
  <rect x="25" y="46" width="4" height="1" fill="#161616"/>
  <rect x="29" y="46" width="2" height="1" fill="#f1efe8"/>
  <rect x="31" y="46" width="1" height="1" fill="#161616"/>
  <rect x="32" y="46" width="2" height="1" fill="#f1efe8"/>
  <rect x="34" y="46" width="1" height="1" fill="#161616"/>
  <rect x="35" y="46" width="1" height="1" fill="#f1efe8"/>
  <rect x="36" y="46" width="2" height="1" fill="#161616"/>
  <rect x="40" y="46" width="1" height="1" fill="#161616"/>
  <rect x="43" y="46" width="1" height="1" fill="#161616"/>
  <rect x="28" y="47" width="8" height="1" fill="#161616"/>
  <rect x="16" y="48" width="31" height="1" fill="#161616"/>
  <rect x="16" y="49" width="1" height="1" fill="#161616"/>
  <rect x="17" y="49" width="29" height="1" fill="#002fa7"/>
  <rect x="46" y="49" width="1" height="1" fill="#161616"/>
  <rect x="17" y="50" width="1" height="1" fill="#161616"/>
  <rect x="18" y="50" width="18" height="1" fill="#002fa7"/>
  <rect x="36" y="50" width="5" height="1" fill="#d4af37"/>
  <rect x="41" y="50" width="6" height="1" fill="#002fa7"/>
  <rect x="47" y="50" width="1" height="1" fill="#161616"/>
  <rect x="18" y="51" width="1" height="1" fill="#161616"/>
  <rect x="19" y="51" width="17" height="1" fill="#002fa7"/>
  <rect x="36" y="51" width="5" height="1" fill="#d4af37"/>
  <rect x="41" y="51" width="7" height="1" fill="#002fa7"/>
  <rect x="48" y="51" width="1" height="1" fill="#161616"/>
  <rect x="18" y="52" width="1" height="1" fill="#161616"/>
  <rect x="19" y="52" width="17" height="1" fill="#002fa7"/>
  <rect x="36" y="52" width="5" height="1" fill="#d4af37"/>
  <rect x="41" y="52" width="7" height="1" fill="#002fa7"/>
  <rect x="48" y="52" width="1" height="1" fill="#161616"/>
  <rect x="18" y="53" width="1" height="1" fill="#161616"/>
  <rect x="19" y="53" width="17" height="1" fill="#ece3c8"/>
  <rect x="36" y="53" width="5" height="1" fill="#d4af37"/>
  <rect x="41" y="53" width="7" height="1" fill="#ece3c8"/>
  <rect x="48" y="53" width="1" height="1" fill="#161616"/>
  <rect x="19" y="54" width="1" height="1" fill="#161616"/>
  <rect x="20" y="54" width="16" height="1" fill="#ece3c8"/>
  <rect x="36" y="54" width="5" height="1" fill="#d4af37"/>
  <rect x="41" y="54" width="8" height="1" fill="#ece3c8"/>
  <rect x="49" y="54" width="1" height="1" fill="#161616"/>
  <rect x="12" y="55" width="24" height="1" fill="#161616"/>
  <rect x="36" y="55" width="5" height="1" fill="#d4af37"/>
  <rect x="41" y="55" width="10" height="1" fill="#161616"/>
  <rect x="12" y="56" width="1" height="1" fill="#161616"/>
  <rect x="13" y="56" width="23" height="1" fill="#8f2d2d"/>
  <rect x="36" y="56" width="5" height="1" fill="#d4af37"/>
  <rect x="41" y="56" width="8" height="1" fill="#8f2d2d"/>
  <rect x="49" y="56" width="1" height="1" fill="#161616"/>
  <rect x="11" y="57" width="1" height="1" fill="#161616"/>
  <rect x="12" y="57" width="24" height="1" fill="#8f2d2d"/>
  <rect x="36" y="57" width="5" height="1" fill="#d4af37"/>
  <rect x="41" y="57" width="7" height="1" fill="#8f2d2d"/>
  <rect x="48" y="57" width="1" height="1" fill="#161616"/>
  <rect x="11" y="58" width="1" height="1" fill="#161616"/>
  <rect x="12" y="58" width="24" height="1" fill="#8f2d2d"/>
  <rect x="36" y="58" width="5" height="1" fill="#d4af37"/>
  <rect x="41" y="58" width="7" height="1" fill="#8f2d2d"/>
  <rect x="48" y="58" width="1" height="1" fill="#161616"/>
  <rect x="10" y="59" width="1" height="1" fill="#161616"/>
  <rect x="11" y="59" width="25" height="1" fill="#8f2d2d"/>
  <rect x="36" y="59" width="5" height="1" fill="#d4af37"/>
  <rect x="41" y="59" width="6" height="1" fill="#8f2d2d"/>
  <rect x="47" y="59" width="1" height="1" fill="#161616"/>
  <rect x="10" y="60" width="1" height="1" fill="#161616"/>
  <rect x="11" y="60" width="25" height="1" fill="#8f2d2d"/>
  <rect x="36" y="60" width="5" height="1" fill="#d4af37"/>
  <rect x="41" y="60" width="6" height="1" fill="#8f2d2d"/>
  <rect x="47" y="60" width="1" height="1" fill="#161616"/>
  <rect x="10" y="61" width="1" height="1" fill="#161616"/>
  <rect x="11" y="61" width="25" height="1" fill="#ece3c8"/>
  <rect x="36" y="61" width="5" height="1" fill="#d4af37"/>
  <rect x="41" y="61" width="6" height="1" fill="#ece3c8"/>
  <rect x="47" y="61" width="1" height="1" fill="#161616"/>
  <rect x="9" y="62" width="1" height="1" fill="#161616"/>
  <rect x="10" y="62" width="26" height="1" fill="#ece3c8"/>
  <rect x="36" y="62" width="5" height="1" fill="#d4af37"/>
  <rect x="41" y="62" width="5" height="1" fill="#ece3c8"/>
  <rect x="46" y="62" width="3" height="1" fill="#161616"/>
  <rect x="9" y="63" width="27" height="1" fill="#161616"/>
  <rect x="36" y="63" width="5" height="1" fill="#d4af37"/>
  <rect x="41" y="63" width="6" height="1" fill="#161616"/>
  <rect x="47" y="63" width="1" height="1" fill="#2e6b4a"/>
  <rect x="48" y="63" width="1" height="1" fill="#161616"/>
  <rect x="14" y="64" width="1" height="1" fill="#161616"/>
  <rect x="15" y="64" width="21" height="1" fill="#2e6b4a"/>
  <rect x="36" y="64" width="5" height="1" fill="#d4af37"/>
  <rect x="41" y="64" width="7" height="1" fill="#2e6b4a"/>
  <rect x="48" y="64" width="1" height="1" fill="#161616"/>
  <rect x="15" y="65" width="1" height="1" fill="#161616"/>
  <rect x="16" y="65" width="20" height="1" fill="#2e6b4a"/>
  <rect x="36" y="65" width="5" height="1" fill="#d4af37"/>
  <rect x="41" y="65" width="8" height="1" fill="#2e6b4a"/>
  <rect x="49" y="65" width="1" height="1" fill="#161616"/>
  <rect x="15" y="66" width="1" height="1" fill="#161616"/>
  <rect x="16" y="66" width="20" height="1" fill="#2e6b4a"/>
  <rect x="36" y="66" width="5" height="1" fill="#d4af37"/>
  <rect x="41" y="66" width="8" height="1" fill="#2e6b4a"/>
  <rect x="49" y="66" width="1" height="1" fill="#161616"/>
  <rect x="15" y="67" width="1" height="1" fill="#161616"/>
  <rect x="16" y="67" width="20" height="1" fill="#ece3c8"/>
  <rect x="36" y="67" width="5" height="1" fill="#d4af37"/>
  <rect x="41" y="67" width="8" height="1" fill="#ece3c8"/>
  <rect x="49" y="67" width="1" height="1" fill="#161616"/>
  <rect x="16" y="68" width="1" height="1" fill="#161616"/>
  <rect x="17" y="68" width="19" height="1" fill="#ece3c8"/>
  <rect x="36" y="68" width="5" height="1" fill="#d4af37"/>
  <rect x="41" y="68" width="9" height="1" fill="#ece3c8"/>
  <rect x="50" y="68" width="1" height="1" fill="#161616"/>
  <rect x="16" y="69" width="20" height="1" fill="#161616"/>
  <rect x="36" y="69" width="5" height="1" fill="#d4af37"/>
  <rect x="41" y="69" width="10" height="1" fill="#161616"/>
  <rect x="36" y="70" width="5" height="1" fill="#d4af37"/>
  <rect x="36" y="71" width="2" height="1" fill="#d4af37"/>
  <rect x="39" y="71" width="2" height="1" fill="#d4af37"/>
</svg>
